# xmcd
#
# Track frame offsets:
#	150
#	33625
#	56893
#	77020
#	94585
#	116804
#	142760
#	166015
#	183034
#	197414
#	220949
#	252328
#	286127
#
# Disc length: 4341 seconds
#
# Revision: 1
# Processed by: cddbd v1.5.1PL0 Copyright (c) Steve Scherf et al.
# Submitted via: audiograbber 1.83.01
#
DISCID=ac10f30d
DTITLE=Stuff Smith Quartet - Swingin' Stuff
DYEAR=1965
DGENRE=Swing
TTITLE0=Caravan
TTITLE1=Take the A Train
TTITLE2=Old Stinkin' Blues
TTITLE3=Only Time Will Tell
TTITLE4=Mack the Knife
TTITLE5=One O'Clock Jump
TTITLE6=Blues for Timme
TTITLE7=My Blue Heaven
TTITLE8=Bugle Blues
TTITLE9=C Jam Blues
TTITLE10=Perdido
TTITLE11=S'Posin
TTITLE12=How High the Moon
EXTD=
EXTT0=
EXTT1=
EXTT2=
EXTT3=
EXTT4=
EXTT5=
EXTT6=
EXTT7=
EXTT8=
EXTT9=
EXTT10=
EXTT11=
EXTT12=
PLAYORDER=
